<svg width="39" height="32" viewBox="0 0 39 32" fill="none" xmlns="http://www.w3.org/2000/svg">
<path d="M38.405 4.22834C37.0133 4.845 35.5183 5.26167 33.9466 5.45C35.55 4.49 36.78 2.96667 37.36 1.15334C35.86 2.04334 34.1983 2.69 32.43 3.03667C31.0133 1.53 28.9966 0.58667 26.7633 0.58667C22.4766 0.58667 19 4.06334 19 8.35334C19 8.96 19.07 9.55 19.2 10.12C12.745 9.795 7.02665 6.70334 3.19665 2.00667C2.52998 3.15667 2.14665 4.49 2.14665 5.91C2.14665 8.60334 3.51831 10.9817 5.59998 12.3733C4.32665 12.3317 3.12998 11.9833 2.08331 11.4017V11.5017C2.08331 15.2633 4.75831 18.4017 8.31165 19.115C7.65831 19.2917 6.97331 19.385 6.26665 19.385C5.76665 19.385 5.27831 19.3383 4.80498 19.2483C5.79331 22.3317 8.65998 24.5783 12.0583 24.6383C9.39998 26.7217 6.05165 27.9633 2.41498 27.9633C1.78831 27.9633 1.16998 27.9267 0.561646 27.855C3.99831 30.06 8.07831 31.3433 12.4616 31.3433C26.745 31.3433 34.5533 19.5133 34.5533 9.25334C34.5533 8.92 34.545 8.58334 34.53 8.25C36.0466 7.15334 37.3633 5.78834 38.4016 4.23334L38.405 4.22834Z" fill="#1DA1F2"/>
</svg>
