<svg width="16" height="15" viewBox="0 0 16 15" fill="none" xmlns="http://www.w3.org/2000/svg">
<path d="M8.22181 13.4893C7.9151 13.6261 7.68759 13.6804 7.54057 13.684H7.5375H7.50048C7.35324 13.6739 7.13642 13.6179 6.85107 13.4906C6.54853 13.3557 6.19877 13.1541 5.81889 12.8902C5.05934 12.3625 4.20876 11.6064 3.41255 10.7007C1.80604 8.87325 0.5 6.52952 0.5 4.3155C0.5 2.26347 2.19912 0.5 4.05225 0.5C5.52177 0.5 6.54644 1.51587 7.12898 2.33684L7.5369 2.91173L7.94462 2.33671C8.52571 1.51719 9.55037 0.5 11.0205 0.5C12.8751 0.5 14.5735 2.26342 14.5735 4.31625C14.5735 6.52946 13.2673 8.8728 11.6606 10.7C10.8643 11.6055 10.0137 12.3616 9.25404 12.8891C8.87413 13.1529 8.52435 13.3545 8.22181 13.4893Z" stroke="#5B7083"/>
</svg>
