<svg width="15" height="15" viewBox="0 0 15 15" fill="none" xmlns="http://www.w3.org/2000/svg">
<path d="M8.9625 0.00749999L5.8515 0H5.85C2.5695 0 0 2.57025 0 5.8515C0 8.925 2.3895 11.256 5.59875 11.379V14.25C5.59875 14.331 5.63175 14.4645 5.68875 14.5522C5.79525 14.721 5.97675 14.8125 6.16275 14.8125C6.26625 14.8125 6.3705 14.784 6.46425 14.724C6.66225 14.598 11.319 11.619 12.5303 10.5945C13.9568 9.387 14.8103 7.617 14.8125 5.8605V5.84775C14.808 2.5725 12.24 0.00749987 8.9625 0.00674987V0.00749999ZM11.8028 9.7365C10.9523 10.4565 8.15625 12.2902 6.72375 13.2188V10.8285C6.72375 10.518 6.4725 10.266 6.16125 10.266H5.86425C3.11925 10.266 1.12575 8.409 1.12575 5.8515C1.12575 3.201 3.20175 1.125 5.85075 1.125L8.961 1.1325H8.9625C11.6115 1.1325 13.6875 3.207 13.689 5.8545C13.6868 7.287 12.9825 8.7375 11.8035 9.7365H11.8028Z" fill="#F4245E"/>
</svg>
