<svg width="15" height="15" viewBox="0 0 15 15" fill="none" xmlns="http://www.w3.org/2000/svg">
<path d="M11.6475 3.92848L7.89751 0.178484C7.67776 -0.0412656 7.32151 -0.0412656 7.10251 0.178484L3.35251 3.92848C3.13201 4.14823 3.13201 4.50448 3.35251 4.72348C3.57301 4.94248 3.92776 4.94398 4.14751 4.72348L6.93751 1.93348V9.57598C6.93751 9.88648 7.18951 10.1385 7.50001 10.1385C7.81051 10.1385 8.06251 9.88648 8.06251 9.57598V1.93348L10.8525 4.72348C10.962 4.83373 11.106 4.88848 11.25 4.88848C11.394 4.88848 11.538 4.83448 11.6475 4.72348C11.8673 4.50373 11.8673 4.14823 11.6475 3.92848V3.92848Z" fill="#F4245E"/>
<path d="M13.281 14.7839H1.719C0.771 14.7839 0 14.0129 0 13.0649V8.82593C0 8.51543 0.252 8.26343 0.5625 8.26343C0.873 8.26343 1.125 8.51543 1.125 8.82593V13.0649C1.125 13.3927 1.39125 13.6589 1.719 13.6589H13.281C13.6088 13.6589 13.875 13.3927 13.875 13.0649V8.82593C13.875 8.51543 14.127 8.26343 14.4375 8.26343C14.748 8.26343 15 8.51543 15 8.82593V13.0649C15 14.0129 14.229 14.7839 13.281 14.7839V14.7839Z" fill="#F4245E"/>
</svg>
