<svg width="18" height="13" viewBox="0 0 18 13" fill="none" xmlns="http://www.w3.org/2000/svg">
<path d="M17.8189 9.07836C17.5999 8.85861 17.2436 8.85861 17.0239 9.07836L15.3589 10.7434V3.06336C15.3589 1.51236 14.0966 0.250863 12.5464 0.250863H8.15888C7.84838 0.250863 7.59638 0.502863 7.59638 0.813363C7.59638 1.12386 7.84838 1.37586 8.15888 1.37586H12.5464C13.4764 1.37586 14.2339 2.13336 14.2339 3.06336V10.7434L12.5689 9.07836C12.3491 8.85861 11.9929 8.85861 11.7739 9.07836C11.5549 9.29811 11.5534 9.65436 11.7739 9.87336L14.3989 12.4984C14.5076 12.6086 14.6516 12.6634 14.7964 12.6634C14.9411 12.6634 15.0836 12.6094 15.1939 12.4984L17.8189 9.87336C18.0394 9.65436 18.0394 9.29811 17.8189 9.07836V9.07836ZM9.82388 11.5384H5.43638C4.50638 11.5384 3.74888 10.7809 3.74888 9.85086V2.17086L5.41388 3.83586C5.52488 3.94611 5.66888 4.00086 5.81288 4.00086C5.95688 4.00086 6.10088 3.94611 6.21038 3.83586C6.43013 3.61611 6.43013 3.25986 6.21038 3.04086L3.58538 0.415863C3.36563 0.195363 3.00938 0.195363 2.79038 0.415863L0.165375 3.04086C-0.055125 3.25986 -0.055125 3.61611 0.165375 3.83586C0.385875 4.05561 0.740625 4.05561 0.960375 3.83586L2.62538 2.17086V9.85086C2.62538 11.4019 3.88763 12.6634 5.43788 12.6634H9.82538C10.1359 12.6634 10.3879 12.4114 10.3879 12.1009C10.3879 11.7904 10.1351 11.5384 9.82538 11.5384H9.82388Z" fill="#F4245E"/>
</svg>
